# xmcd CD database file
#
# Track frame offsets:
#	150
#	16878
#	29145
#	38773
#	46155
#	51400
#	63800
#	72213
#	92415
#	99015
#	113248
#	123365
#	141988
#
# Disc length: 2662 seconds
#
# Revision: 4
# Processed by: cddbd v1.5.2PL0 Copyright (c) Steve Scherf et al.
# Submitted via: CDex 1.51
#
DISCID=a80a640d
DTITLE=Macabre - Murder Metal
DYEAR=2000
DGENRE=Metal: Death Metal
TTITLE0=Acid Bath Vampire (John George Haigh)
TTITLE1=You're dying to be with Me (Dennis Nielsen)
TTITLE2=Fatal Foot Fetish (Jerry Brudos)
TTITLE3=The Hillside Stranglers (Angelo Buono and Kenneth Bianchi)
TTITLE4=Dorothea's Dead Folks Home (Dorothea Puente)
TTITLE5=The Iceman (Richard Kuklinski)
TTITLE6=Poison (Graham Frederick Young)
TTITLE7=Werewolf of Bedburg (Peter Stumpp)
TTITLE8=Morbid Minister (Gary Heidnick)
TTITLE9=The Wüstenfeld Man Eater (Armin Meiwes)
TTITLE10=Diary of Torture (Robert Berdella)
TTITLE11=Jack the Ripper (Identity Unknown)
TTITLE12=Fritz Haarman der Metzger
EXTD=YEAR: 2000
EXTT0=
EXTT1=
EXTT2=
EXTT3=
EXTT4=
EXTT5=
EXTT6=
EXTT7=
EXTT8=
EXTT9=
EXTT10=
EXTT11=
EXTT12=
PLAYORDER=
